<?xml version="1.0" encoding="utf-8"?>
<svg viewBox="0 0 500 500" xmlns="http://www.w3.org/2000/svg">
  <defs>
    <clipPath id="clippath0" transform="">
      <path d="M 0 500 L 500 500 L 500 0 L 0 0 Z" style="fill: none; clip-rule: nonzero;"/>
    </clipPath>
  </defs>
  <g transform="matrix(0.088580012321, 0, 0, -0.088580012321, -6190.380172583798, -4307.078600785287)" fill="#000000" stroke="none" style="transform-origin: 6399.54px 4430px;">
    <title>VALLA</title>
    <path d="M 4184.971 1032 L 4463.411 1024.017 L 4608.132 771.503 L 4752.42 519 L 5346.421 519 L 5495.132 259.504 L 5541.018 178.893 L 5580.165 178.893 L 5518.868 285.496 C 5443.869 417.495 5381 528.247 5381 533 C 5381 536.753 5446.866 652.501 5526.864 789.496 L 5672.574 1039 L 5833 1039 C 5921.988 1039 6050.959 1036.001 6119.951 1033.001 L 6245.403 1026.032 L 6387.133 779.502 L 6528.845 532.004 L 6323.45 178.893 L 6363.742 178.893 L 6562.574 519 L 7155.578 519 L 7305.866 779.5 L 7455.578 1038.002 L 7736.002 1039 L 8016.421 1039 L 8165.132 779.504 L 8313.419 519 L 8908.419 519 L 9102.018 178.893 L 9141.422 178.893 C 9113.036 227.95 9081.004 284.422 9051.123 337.863 C 8992.626 442.482 8942.577 534.919 8943.894 537.553 C 8945.88 541.524 9012.865 656.498 9091.866 793.5 L 9235.558 1041.967 L 9359.944 1035.002 C 9428.954 1032.001 9556.988 1029 9645 1029 L 9683.042 1029 L 9683.042 1076 L 9227.579 1076 L 9089.867 1315.498 C 9013.873 1447.488 8951.939 1561.239 8952 1568 L 8952.001 1568.074 L 8951.99 1568.141 C 8950.933 1574.829 9014.87 1690.508 9092.865 1825.498 L 9234.573 2068.996 L 9522.991 2067 L 9683.042 2065.344 L 9683.042 2112.356 C 9640.509 2112.663 9582.354 2113.921 9503.027 2116 L 9224.588 2123.984 L 9089.869 2358.495 C 9016.868 2487.497 8951.898 2600.435 8947.928 2610.371 L 8947.904 2610.433 L 8947.88 2610.474 C 8944.413 2616.573 8951.172 2635.606 8972.265 2676.668 C 8993.38 2717.775 9028.868 2780.503 9082.865 2873.498 L 9225.572 3118.994 L 9509.989 3116 L 9683.042 3114.786 L 9683.042 3151 L 9223.579 3151 L 9099.293 3367.858 C 9093.657 3353.699 9087.591 3339.924 9081.141 3326.514 C 9133.781 3234.963 9174.373 3163.225 9179.117 3154.531 C 9188.09 3136.969 9169.12 3099.474 9043.135 2881.501 L 8896.429 2629.008 L 8617.014 2633 L 8338.584 2635.994 L 8215.849 2850.565 C 8198.585 2850.498 8180.906 2850.836 8162.772 2851.64 L 8306.845 2600.005 L 8165.137 2357.505 L 8023.427 2116 L 7758.946 2116 C 7754.548 2100.475 7750.089 2084.844 7745.547 2069 L 8024.419 2069 L 8164.13 1823.506 C 8241.125 1687.516 8302.875 1573.311 8301.061 1567.346 C 8298.885 1562.054 8234.133 1448.498 8157.134 1314.501 L 8015.425 1071 L 7452.581 1071 L 7441.855 1089.79 C 7428.419 1063.12 7414.03 1037.2 7398.642 1012.621 C 7375.412 968.982 7328.264 884.997 7274.135 791.502 L 7134.427 551.004 L 6846.009 553 L 6557.584 555.994 L 6415.869 804.495 L 6273.156 1052.995 L 6287.169 1076.952 C 6279.947 1090.596 6273.003 1104.485 6266.326 1118.536 L 6241.427 1076 L 5666.58 1076 L 5383.155 1570.995 L 5528.864 1820.496 L 5673.573 2068.996 L 5958.991 2067 L 5977.644 2066.804 C 5973.409 2081.683 5969.243 2096.392 5965.138 2110.964 L 5955.004 2111 C 5801.019 2111 5673.323 2114.825 5668.753 2118.664 C 5665.206 2123.611 5600.864 2232.503 5525.868 2363.497 C 5443.879 2506.477 5392.162 2606.623 5394.938 2616.645 C 5398.482 2624.16 5465.499 2741.284 5532.575 2857.523 C 5517.409 2857.196 5502.553 2857.194 5487.982 2857.476 L 5353.42 2625.991 L 5153.988 2623 C 5045.001 2622 4915.056 2623.998 4865.085 2627.996 L 4776.608 2635.949 L 4634.868 2882.497 L 4494.155 3128.994 L 4628.54 3359.105 C 4621.696 3375.028 4615.388 3391.42 4609.683 3408.294 L 4605.136 3400.504 L 4463.424 3156 L 4017 3156 L 4017 3109 L 4178.998 3109 L 4464.419 3108.002 L 4607.132 2858.504 L 4749.845 2608.007 L 4606.137 2362.505 L 4462.422 2115.994 L 4177.991 2113 L 4017 2111.874 L 4017 2067.716 L 4179.989 2066 L 4464.418 2064.004 L 4605.132 1818.503 L 4745.845 1574.002 L 4454.427 1071.006 L 4171.011 1074 L 4017 1075.085 L 4017 1036.608 C 4057.276 1035.8 4111.483 1034.194 4184.971 1032 Z M 4177.99 4147 L 4462.415 4144.006 L 4573.131 3949.505 C 4613.786 3879.342 4655.303 3806.595 4683.863 3756.365 C 4693.946 3762.556 4705.137 3768.494 4716.933 3774.054 L 4635.87 3916.494 C 4558.875 4052.484 4497.125 4166.689 4498.939 4172.654 C 4501.116 4177.951 4565.867 4292.501 4643.863 4425.494 L 4785.575 4669 L 5272.52 4669 C 5258.391 4676.067 5243.941 4682.75 5229.069 4689.064 C 5211.746 4696.78 5194.381 4704.517 5176.962 4712 L 4775.581 4712 L 4745.668 4764.509 C 4727.186 4767.327 4708.787 4771.137 4690.797 4775.786 L 4745.846 4679.006 L 4601.136 4430.504 L 4455.426 4181 L 4371 4181 C 4324.012 4181 4194.03 4184 4084.036 4187.999 L 4017 4189.99 L 4017 4147.462 C 4058.238 4147.772 4111.025 4147.606 4177.99 4147 Z M 4449.457 5189 L 4473.161 5152.456 C 4475.982 5148.224 4480.962 5140.165 4487.672 5129.01 C 4496.257 5141.457 4506.479 5154.314 4517.868 5167.034 C 4505.403 5189.469 4497.898 5203.182 4497.022 5205.136 C 4498.384 5210.354 4560.869 5322.506 4640.865 5460.498 L 4785.575 5709 L 5347.418 5709 L 5489.13 5459.506 L 5523.882 5398.751 C 5540.224 5396.055 5556.409 5393.058 5572.413 5389.748 L 5520.87 5480.494 C 5442.876 5617.482 5380.905 5733.05 5382.928 5737.629 L 5382.961 5737.701 L 5382.981 5737.804 C 5383.489 5740.418 5402.59 5774.405 5432.149 5825.856 L 5386.548 5825.856 L 5344.418 5751.998 L 5059.998 5751 L 4775.582 5751 L 4733.064 5825.856 L 4681.602 5825.856 C 4715.371 5764.68 4736.676 5723.911 4736.062 5722.362 C 4733.313 5717.08 4668.134 5604.501 4589.134 5467.5 L 4446.426 5221.004 L 4167.009 5223 L 4017 5224.613 L 4017 5189 Z M 6510.092 5702.419 C 6503.034 5688.323 6439.134 5576.5 6368.136 5453.503 L 6237.428 5231 L 5946.234 5231 C 5968.868 5217.183 5990.913 5203.122 6012.487 5189 L 6237.421 5189 L 6378.132 4943.503 C 6456.128 4807.511 6519 4692.76 6519 4688 C 6519 4687.187 6517.136 4683.166 6513.657 4676.387 C 6521.664 4663.464 6529.509 4650.46 6537.204 4637.375 L 6555.573 4668.996 L 6838.991 4667 L 7123.419 4664.006 L 7163.017 4595.349 C 7171.694 4610.797 7180.562 4626.131 7189.64 4641.352 L 7161.155 4690.997 L 7286.865 4907.498 C 7355.863 5026.494 7423.849 5141.472 7437.843 5163.462 L 7462.537 5201.984 L 7726.785 5194.352 C 7747.399 5207.592 7768.504 5220.743 7790.174 5233.649 L 7728.991 5233 L 7445.579 5231.004 L 7305.869 5476.495 C 7228.874 5611.486 7166 5727.239 7166 5733 C 7166 5736.699 7184.832 5772.446 7214.505 5825.856 L 7168.173 5825.856 L 7124.426 5751 L 6554.58 5751 L 6511.762 5825.856 L 6464.524 5825.856 C 6514.694 5734.501 6517.203 5719.237 6510.092 5702.419 Z M 8292.126 5748.514 C 8295.576 5743.448 8288.829 5724.646 8267.61 5683.332 C 8246.369 5641.974 8210.632 5578.496 8156.135 5484.502 L 8088.62 5368.562 C 8092.46 5369.716 8096.317 5370.853 8100.191 5371.972 C 8115.594 5375.896 8131.188 5379.501 8146.95 5382.796 C 8162.241 5409.548 8178.723 5438.111 8195.864 5467.496 L 8335.577 5709 L 8907.423 5709 L 9049.134 5463.5 C 9127.124 5328.517 9187.822 5213.421 9186.064 5207.354 C 9185.363 5205.748 9181.709 5199.094 9175.619 5188.291 C 9185.864 5178.421 9195.564 5168.174 9204.511 5157.852 C 9214.165 5173.795 9220.309 5183.612 9221.768 5185.36 C 9225.887 5190.676 9367.502 5192.25 9509.992 5191.125 C 9571.265 5190.641 9632.571 5189.65 9683.042 5188.211 L 9683.042 5231 L 9222.579 5231 L 9080.868 5477.496 L 8940.153 5724.995 L 8957.863 5755.495 C 8962.292 5763.024 8977.296 5788.962 8998.629 5825.856 L 8958.245 5825.856 L 8914.427 5751 L 8332.582 5751 L 8290.023 5825.856 L 8247.953 5825.856 C 8273.021 5782.132 8289.674 5752.927 8292.126 5748.514 Z M 9506.01 4194 L 9217.582 4195.996 L 8932.167 4694.974 L 8950.845 4724.465 C 8953.642 4728.94 8960.576 4740.675 8970.579 4757.773 C 8954.719 4755.51 8938.828 4753.954 8923.119 4753.189 L 8901.426 4716 L 8568.522 4716 C 8542.462 4705.116 8516.412 4693.372 8490.256 4681.726 C 8487.319 4680.48 8484.399 4679.22 8481.494 4677.944 L 8615.991 4677 L 8900.419 4674.006 L 9045.134 4423.501 L 9189.843 4172.005 L 9042.138 3920.506 L 8962.797 3783.954 C 8975.488 3779.217 8988.136 3773.937 9000.224 3768.286 L 9047.864 3850.496 C 9110.865 3957.499 9174.859 4068.487 9190.871 4097.509 L 9220.578 4149 L 9683.042 4149 L 9683.042 4192.162 Z M 7262.131 5469.505 C 7337.131 5337.506 7400.075 5226.655 7401.019 5221.804 L 7401.039 5221.701 L 7401.072 5221.629 C 7403.097 5217.054 7339.129 5100.491 7259.135 4962.502 L 7114.422 4711.998 L 6834.998 4711 L 6555.577 4711 L 6411.867 4959.499 L 6269.156 5208.993 L 6361.862 5366.493 C 6411.86 5453.49 6477.863 5566.494 6507.862 5617.493 L 6561.573 5709 L 7125.419 5709 Z M 8004.271 4201.685 C 8001.867 4199.251 7997.451 4197.322 7989.476 4195.86 C 7981.461 4180.728 7974.145 4164.796 7967.403 4148.169 L 8014.418 4148.002 L 8156.131 3899.505 L 8213.698 3798.155 C 8229.573 3799.62 8246.038 3800.828 8262.91 3801.822 L 8189.867 3928.499 C 8111.871 4064.491 8048 4180.242 8048 4185 C 8048 4190.757 8092.867 4271.503 8147.861 4364.491 C 8176.681 4414.66 8208.352 4469.105 8235.269 4515.05 C 8222.955 4504.544 8210.467 4493.661 8197.73 4482.392 C 8177.264 4465.282 8159.221 4448.257 8142.783 4430.743 C 8077.078 4318.503 8012.723 4211.069 8004.271 4201.685 Z M 5665.583 4195.994 L 5533.867 4425.498 C 5512.188 4463.214 5491.303 4499.695 5472.468 4532.636 C 5442.446 4557.861 5413.326 4580.786 5383.984 4601.581 L 5488.132 4419.504 L 5630.845 4169.006 L 5482.137 3914.504 L 5421.753 3810.057 C 5440.081 3809.298 5458.099 3808.346 5475.59 3807.154 C 5509.344 3865.88 5553.977 3942.497 5610.862 4039.493 L 5678.567 4153.994 L 5753.569 4153.19 C 5747.754 4167.745 5741.51 4181.79 5734.759 4195.266 Z M 5497.131 2339.506 L 5638.847 2089.007 L 5351.422 1595.994 L 5067.991 1593 L 4783.577 1591.004 L 4644.868 1832.497 C 4568.871 1965.492 4504.921 2080.369 4502.965 2087.263 C 4501.034 2095.088 4562.872 2210.51 4641.861 2344.492 L 4783.576 2589 L 5354.42 2589 Z M 9052.132 2334.504 L 9196.845 2081.006 L 9055.137 1838.505 L 8914.424 1596 L 8338.576 1596 L 8199.866 1835.5 C 8123.872 1967.489 8062.338 2080.568 8061.001 2088.071 C 8061.314 2096.44 8124.87 2211.507 8202.864 2345.497 L 8344.575 2589 L 8906.42 2589 Z M 9053.133 1306.502 C 9130.126 1173.514 9192 1059.761 9192 1055 C 9192 1049.242 9128.13 933.493 9049.136 797.503 L 8905.425 551 L 8335.58 551 L 8192.869 800.495 C 8128.87 912.993 8093.386 975.964 8075.275 1013.311 C 8057.232 1050.516 8056.437 1061.791 8061.876 1071.518 C 8092.865 1130.498 8324.799 1526.408 8336.735 1539.322 C 8347.376 1552.145 8390.017 1554.001 8631.988 1551 L 8914.418 1548.006 Z M 5494.131 1303.505 C 5571.129 1168.51 5634.089 1055.915 5633.051 1053.316 L 5632.996 1053.177 L 5633 1053 C 5633.066 1050.248 5568.134 936.5 5488.136 799.504 L 5344.424 551.002 L 5064.004 552 C 4812.036 551.999 4781.426 553.825 4768.766 568.643 C 4753.79 586.617 4502.92 1022.364 4498.973 1039.229 L 4498.953 1039.316 L 4498.928 1039.371 C 4496.903 1043.946 4560.871 1160.509 4640.865 1298.498 L 4785.577 1549 L 5354.419 1549 Z" style="stroke: rgb(186, 218, 85); paint-order: stroke; fill: rgb(22, 82, 116);"/>
  </g>
  <g fill="#000000" fill-opacity="1.00" stroke="None" transform="matrix(0.24791300296783447, 0, 0, 0.24791300296783447, 53.854778289795036, 65.5947036743164)" style="">
    <path d="M 1658.072 1692.56 C 1543.688 1645.997 1513.288 1561.08 1489.666 1456.513 C 1488.994 1529.441 1492.841 1688.064 1484.942 1756.839 C 1470.959 1588.767 1441.487 1473.674 1437.893 1465.93 C 1390.288 1539.442 1391.884 1631.487 1360.803 1721.831 C 1359.478 1640.434 1371.633 1510.714 1376.189 1432.434 C 1320.912 1572.888 1292.52 1561.977 1188.951 1674.886 C 1218.581 1635.77 1284.079 1498.216 1310.857 1359.654 C 1293.078 1469.744 1297.263 1430.703 1199.945 1500.699 C 1262.079 1419.831 1260.46 1363.438 1278.271 1277.618 C 1226.918 1331.671 1249.623 1306.175 1206.799 1361.177 C 1149.456 1434.827 1145.66 1458.016 1090.907 1542.525 C 1101.614 1410.851 1134.77 1357.357 1172.484 1301.69 C 1247.73 1190.621 1257.951 1209.728 1299.416 1093.232 C 1422.24 1093.232 1506.356 1092.186 1629.171 1092.186 C 1642.711 1090.379 1636.32 1109.711 1640.63 1117.749 C 1653.694 1198.721 1662.525 1281.667 1696.233 1356.558 C 1705.763 1376.046 1730.796 1377.086 1749.933 1374.257 C 1729.368 1405.646 1683.144 1400.128 1661.856 1372.423 C 1638.727 1349.505 1622.498 1321.22 1607.134 1293.162 C 1612.875 1353.109 1604.709 1360.552 1646.279 1447.597 C 1664.472 1487.272 1710.829 1535.297 1756.879 1525.873 C 1692.81 1551.347 1670.613 1529.479 1629.235 1508.317 C 1586.53 1486.477 1564.877 1437.332 1542.235 1400.444 C 1548.387 1464.902 1571.66 1600.828 1658.072 1692.56 Z" style="fill: rgb(15, 101, 10); transform-box: fill-box; transform-origin: 50% 50%;" transform="matrix(-1, 0, 0, -1, -0.000183, 0.000244)"/>
    <path d="M 427.055 1757.663 C 345.401 1670.59 317.513 1552.539 288.561 1441.751 C 284.424 1427.107 283.255 1409.527 277.318 1396.734 C 250.711 1463.164 219.12 1528.373 178.647 1588.017 C 189.847 1514.344 206.465 1437.813 216.73 1363.844 C 162.453 1501.759 86.069 1639.111 -38.603 1730.831 C 62.752 1563.696 115.462 1372.361 144.891 1181.217 C 106.789 1237.372 60.614 1294.299 3.159 1332.901 C -59.367 1379.39 -149.304 1398.205 -219.499 1356.92 C -182.264 1354.938 -143.886 1352.393 -110.642 1335.083 C 6.872 1275.551 59.549 1144.137 103.346 1029.747 C 223.949 1029.747 344.544 1029.747 465.138 1029.747 C 478.434 1027.973 472.158 1046.955 476.39 1054.849 C 489.218 1134.357 497.89 1215.803 530.988 1289.339 C 540.346 1308.476 564.926 1309.497 583.717 1306.72 C 563.524 1337.54 518.136 1332.122 497.233 1304.918 C 474.521 1282.415 458.587 1254.64 443.5 1227.09 C 459.348 1319.14 476.858 1414.522 517.677 1499.994 C 535.541 1538.951 578.506 1555.473 609.683 1581.959 C 550.602 1604.419 493.139 1560.633 458.145 1514.516 C 422.805 1470.011 397.592 1418.814 373.391 1368.171 C 379.433 1497.838 388.245 1630.031 432.249 1750.738 C 429.929 1752.331 427.946 1755.084 427.055 1757.663 Z" style="fill: rgb(15, 101, 10); transform-box: fill-box; transform-origin: 50% 50%;" transform="matrix(-1, 0, 0, -1, -0.000002, 0.000218)"/>
  </g>
  <g fill="#000000" fill-opacity="1.00" stroke="None" transform="matrix(1.1736199855804443, 0, 0, 1.1736199855804443, 39.670288085937614, 38.463565826416016)" style="">
    <title>CABRA</title>
    <path d="M 159.429 101.482 C 166.611 101.482 191.836 102 199 102 C 201.5 91.82 204.56 80.67 209.31 71.31 C 214.05 61.94 219.05 53.91 225.92 45.92 C 232.78 37.92 238.91 32.55 247.7 26.7 C 256.48 20.84 264.72 15.62 275.68 12.68 C 286.63 9.74 298.321 9.462 311.22 10.78 C 323.777 12.063 329.49 14.41 342.69 21.31 C 355.9 28.2 344.99 38.321 331.99 36.01 C 318.99 33.699 306.548 38.218 297.32 42.32 C 288.092 46.422 280.21 52.23 272.25 59.25 C 264.29 66.27 259.81 73.32 254.7 82.7 C 249.58 92.07 247.2 104.12 245.07 115.07 C 242.94 126.03 251.91 136.21 257 145 C 262.99 137.84 269.53 133.57 279.02 132.02 C 288.52 130.48 304.48 131.26 314 131 C 323.52 130.74 339.83 128.7 339.21 139.23 C 338.59 149.75 333.66 155.89 326.75 162.75 C 319.84 169.62 314.32 174.37 304.32 176.32 C 294.32 178.28 285.87 180.57 274 179 C 262.13 177.43 263.16 192.23 260.22 201.22 C 257.29 210.22 250.64 216.54 242 219 C 238.97 231.06 235.11 244.88 231.68 256.68 C 228.24 268.48 224.09 283.85 221.02 295.02 C 217.96 306.2 214.13 320.81 206.25 328.25 C 198.37 335.68 189.361 350.59 178.421 350.97 C 178.07 350.983 178.777 350.975 178.588 350.968 C 167.648 350.588 160.059 335.162 152.179 327.732 C 144.299 320.292 140.469 305.682 137.409 294.502 C 134.339 283.332 130.189 267.962 126.749 256.162 C 123.319 244.362 119.459 230.542 116.429 218.482 C 107.789 216.022 101.139 209.702 98.209 200.702 C 95.269 191.712 96.299 176.912 84.429 178.482 C 72.559 180.052 64.109 177.762 54.109 175.802 C 44.109 173.852 38.589 169.102 31.679 162.232 C 24.769 155.372 19.839 149.232 19.219 138.712 C 18.599 128.182 34.909 130.222 44.429 130.482 C 53.949 130.742 69.909 129.962 79.409 131.502 C 88.899 133.052 95.439 137.322 101.429 144.482 C 106.519 135.692 115.489 125.512 113.359 114.552 C 111.229 103.602 108.849 91.552 103.729 82.182 C 98.619 72.802 94.139 65.752 86.179 58.732 C 78.219 51.712 70.337 45.904 61.109 41.802 C 51.881 37.7 39.439 33.181 26.439 35.492 C 13.439 37.803 2.529 27.682 15.739 20.792 C 28.939 13.892 34.652 11.545 47.209 10.262 C 60.108 8.944 71.799 9.222 82.749 12.162 C 93.709 15.102 101.949 20.322 110.729 26.182 C 119.519 32.032 125.649 37.402 132.509 45.402 C 139.379 53.392 144.379 61.422 149.119 70.792 C 153.869 80.152 156.929 91.302 159.429 101.482 Z" style="fill: rgb(165, 165, 165);"/>
  </g>
  <g style="" transform="matrix(0.38880401849746704, 0, 0, 0.38880401849746704, 151.57762145996105, 171.28526306152344)">
    <title>OJOS</title>
    <g fill="#2B251E" fill-opacity="1.00" stroke="None" transform="matrix(1, 0, 0, 1, -45.97673, -49.206161)">
      <path d="&#10;M 130.00 241.00 &#10;C 99.27 235.73 58.42 257.33 71.02 292.98 C 84.34 336.79 133.79 362.45 178.00 356.00 C 194.26 354.17 210.61 347.24 226.00 356.00 C 243.32 350.97 232.28 327.09 226.93 316.07 C 216.64 272.34 171.74 245.11 130.00 241.00 Z"/>
    </g>
    <g fill="#2D261F" fill-opacity="1.00" stroke="None" transform="matrix(1, 0, 0, 1, -45.97673, -49.206161)">
      <path d="&#10;M 486.00 241.00 &#10;C 436.14 238.60 383.40 267.70 370.98 317.98 C 362.98 329.14 357.63 363.42 380.78 353.78 C 398.45 346.73 416.26 359.31 435.00 357.00 C 453.14 357.02 470.01 351.73 485.77 343.77 C 512.68 328.33 538.92 295.58 526.30 263.70 C 518.52 248.57 500.93 243.22 486.00 241.00 Z"/>
      <g fill="None" fill-opacity="0.0" stroke="#FFFFFF" stroke-opacity="1.00" stroke-width="0.3" transform="matrix(0.637631, 0, 0, 0.637631, -234.536118, -216.378036)" style=""/>
    </g>
    <g fill="#6F4D2E" fill-opacity="1.00" stroke="None" transform="matrix(1, 0, 0, 1, -45.97673, -49.206161)">
      <path d="&#10;M 136.00 249.00 &#10;C 104.22 241.34 69.31 270.39 85.08 302.92 C 96.98 328.52 125.31 347.15 154.00 345.00 C 184.19 349.86 214.89 319.67 205.77 290.23 C 189.76 266.72 162.36 253.57 136.00 249.00 Z" style="fill: rgb(203, 135, 70);"/>
    </g>
    <g fill="#735030" fill-opacity="1.00" stroke="None" transform="matrix(1, 0, 0, 1, -45.97673, -49.206161)">
      <path d="&#10;M 484.00 250.00 &#10;C 453.38 247.94 425.11 258.90 403.25 279.25 C 378.67 298.40 400.84 337.71 426.78 342.22 C 456.19 348.93 488.32 340.36 506.23 315.23 C 528.39 293.74 514.53 252.92 484.00 250.00 Z" style="fill: rgb(203, 135, 70);"/>
    </g>
    <g fill="#090504" fill-opacity="1.00" stroke="None" transform="matrix(1, 0, 0, 1, -45.97673, -49.206161)"/>
    <g fill="#090605" fill-opacity="1.00" stroke="None" transform="matrix(1, 0, 0, 1, -45.97673, -49.206161)">
      <path d="M 485.871 282.615 C 475.663 272.407 469.015 283.74 456.019 288.877 C 442.475 294.23 413.687 301.064 428.148 315.525 C 434.373 321.75 448.572 312.327 461.098 307.139 C 472.026 302.613 500.54 297.284 485.871 282.615 Z"/>
    </g>
    <g fill="#090605" fill-opacity="1.00" stroke="None" transform="matrix(-1, 0, 0, 1, 553.7453, -48.687626)" style="">
      <path d="M 485.871 282.615 C 475.663 272.407 469.015 283.74 456.019 288.877 C 442.475 294.23 413.687 301.064 428.148 315.525 C 434.373 321.75 448.572 312.327 461.098 307.139 C 472.026 302.613 500.54 297.284 485.871 282.615 Z"/>
    </g>
  </g>
</svg>