<?xml version="1.0" encoding="utf-8"?>
<svg viewBox="56.786 -25.593 792.199 630.352" xmlns="http://www.w3.org/2000/svg">
  <g fill="None" fill-opacity="0.0" stroke="#9A93A0" stroke-opacity="1.00" stroke-width="0.3" transform="matrix(0.9999999999999999, 0, 0, 0.9999999999999999, 41.63047399217723, -76.52075940165298)">
    <path d="&#10;M 159.00 193.00 &#10;C 158.03 199.53 156.57 205.20 155.00 211.00&#10;C 153.61 226.11 149.52 242.36 151.00 257.00&#10;C 156.07 245.63 163.46 234.14 172.00 225.00&#10;C 173.34 223.57 174.82 221.66 176.00 220.00&#10;C 182.95 210.27 191.82 201.46 199.00 192.00&#10;C 201.54 187.39 202.10 175.07 200.93 170.07 C 199.75 165.07 204.04 151.68 199.00 150.00&#10;C 190.03 151.05 182.12 162.43 175.25 168.25 C 168.37 174.07 161.89 184.87 159.00 193.00 Z"/>
  </g>
  <g fill="None" fill-opacity="0.0" stroke="#423A2D" stroke-opacity="1.00" stroke-width="0.3" transform="matrix(0.9999999999999999, 0, 0, 0.9999999999999999, 41.63047399217723, -76.52075940165298)">
    <path d="&#10;M 203.00 168.00 &#10;C 204.06 172.77 203.44 180.12 203.00 185.00&#10;C 209.83 177.04 218.30 169.66 226.00 162.00&#10;C 218.04 161.70 211.03 168.83 203.00 168.00 Z"/>
  </g>
  <g fill="#080B0F" fill-opacity="1.00" stroke="None" transform="matrix(0.9999999999999999, 0, 0, 0.9999999999999999, 41.63047399217723, -76.52075940165298)">
    <path d="M 318 116 C 315.45 115.15 312.66 114.56 310 114 C 307.59 113.49 305.44 113.39 303 113 C 288.35 110.67 279.35 116.68 266 119 C 265.51 119.08 259.55 121.22 256 118 C 254.08 116.26 238.47 100.56 234.25 94.75 C 230.03 88.95 221.91 81.981 217.14 77.931 C 212.37 73.881 202.89 61.12 198.78 67.78 C 194.67 74.43 192.49 84.3 188.77 91.77 C 185.05 99.25 181.4 107.62 178.78 115.78 C 176.15 123.94 171.62 131.39 168.98 139.98 C 166.34 148.56 163.47 157.31 161.32 166.32 C 159.17 175.33 156.53 184.11 154.33 193.33 C 152.13 202.55 150.41 212.27 148.93 221.93 C 147.45 231.58 145.71 242.83 146 253 C 146.29 263.17 143.754 272.835 142 282 C 139.122 297.04 139.011 302.224 138 311 C 137.46 315.691 137.325 318.593 136.204 320.91 C 134.26 324.93 132.238 325.353 129 330 C 120.91 343.63 116.09 356.97 115 373 C 114.6 378.92 114 384.79 114 391 C 114 393 113.94 395 114 397 C 114.37 400.25 115.28 405.29 116 409 C 116.3 410.54 117.37 413.17 118 415 C 122.17 427.03 118.702 432.546 115.412 444.856 C 112.922 454.186 109.111 461.267 106 471 C 90.72 509.01 76.27 547.31 60 585 C 57.16 591.58 54.31 597.66 51 604 C 41.88 621.46 32.1 639.22 22 656 C 43.56 660.64 65.267 663.298 87.887 664.742 C 99.508 665.484 107.063 665.464 121 663 C 140.283 659.591 145.404 657.906 167 647 C 181.499 639.678 198.18 628.94 208 616 C 210.63 612.54 213.45 609.26 216 606 C 217.35 603.32 222.27 596.33 223 595 C 224.99 591.38 227.77 586.8 231 585 C 246.02 624.44 286.01 656.41 329 656 C 334.67 656 340.33 656 346 656 C 352.28 656 358.15 655.66 364 654 C 363.99 663.67 362.19 672.92 360 682 L 365 682 C 365.41 680.26 753.024 682.652 801 672 C 789 648.05 791.6 587.25 808 593 L 808 587 C 794.59 582.94 780.17 578.68 766.31 576.69 C 752.44 574.71 733.81 576.97 727.08 563.92 C 720.34 550.88 713.72 543.58 707.22 531.78 C 700.73 519.98 693.59 511.05 687.7 499.31 C 681.8 487.56 675.01 477.52 669.23 465.77 C 663.45 454.02 657.61 442.83 652.07 430.93 C 646.54 419.02 641.03 407.43 635.68 395.32 C 630.32 383.21 624.93 371.25 620.22 358.78 C 615.52 346.31 610.73 332.65 606 320 C 603.71 315.85 602.37 311.91 601 307 C 596.9 292.3 589.6 281.96 584.32 267.68 C 579.05 253.4 583 230.94 583 215 C 583 202 581.916 154.59 581.916 144 C 581.376 138.45 578.54 79.15 570 58 C 558.29 63.13 511.481 95.873 501.44 103.537 C 491.399 111.201 455.97 139.17 444.75 145.75 C 433.53 152.34 416.23 140.09 405.07 135.93 C 393.92 131.77 355.5 97.28 346.75 88.25 C 338.01 79.22 331.16 67.89 324 58 C 323.73 81.56 333.25 106.18 345 127 C 335.64 124.5 327.23 119.08 318 116 Z"/>
  </g>
  <g fill="#423A2D" fill-opacity="1.00" stroke="None" transform="matrix(0.9999999999999999, 0, 0, 0.9999999999999999, 41.63047399217723, -76.52075940165298)">
    <path d="M 556.285 83.401 C 568.509 85.999 570.214 91.597 573.317 98.986 C 572.718 87.254 571.671 71.899 568.281 65.609 C 568.451 68.699 561.085 77.752 556.285 83.401 Z"/>
  </g>
  <g fill="#423A2D" fill-opacity="1.00" stroke="None" transform="matrix(0.9999999999999999, 0, 0, 0.9999999999999999, 41.63047399217723, -76.52075940165298)">
    <path d="M 201.851 70.546 C 202.09 78.87 202.948 92.967 202.078 96.057 C 209.239 93.111 219.136 92.7 226.474 92.807 C 221.324 85.327 209.564 75.825 201.851 70.546 Z"/>
  </g>
  <g fill="#9A93A0" fill-opacity="1.00" stroke="None" transform="matrix(0.9999999999999999, 0, 0, 0.9999999999999999, 41.63047399217723, -76.52075940165298)">
    <path d="M 566.698 65.254 C 564.608 66.764 538.413 80.697 537.693 82.397 C 544.055 81.399 551.265 82.477 553.595 82.477 C 556.325 81.327 566.198 66.004 566.698 65.254 Z"/>
  </g>
  <g fill="#9A93A0" fill-opacity="1.00" stroke="None" transform="matrix(0.9999999999999999, 0, 0, 0.9999999999999999, 41.63047399217723, -76.52075940165298)">
    <path d="M 200.582 71.362 C 197.013 77.888 190.927 90.292 185.908 104.745 C 190.639 98.815 199.728 96.86 200.128 96.66 C 200.665 86.69 200.582 74.032 200.582 71.362 Z"/>
  </g>
  <g fill="#9A93A0" fill-opacity="1.00" stroke="None" transform="matrix(0.9999999999999999, 0, 0, 0.9999999999999999, 41.63047399217723, -76.52075940165298)">
    <path d="M 533.629 85.119 C 523.531 91.712 490.403 116.51 488.393 119 C 489.723 119 505.033 118.639 515.454 119.809 C 523.669 111.913 532.4 101.546 550.585 84.481 C 549.605 84.431 542.503 82.374 533.629 85.119 Z"/>
  </g>
  <g fill="#423A2D" fill-opacity="1.00" stroke="None" transform="matrix(0.9999999999999999, 0, 0, 0.9999999999999999, 41.63047399217723, -76.52075940165298)">
    <path d="M 553.275 85.12 C 536.081 102.069 531.767 106.148 518.725 121.319 C 542.665 126.059 566.34 142.59 577 165 C 577.565 148.005 576.366 130.43 575 115 C 573.634 99.57 569.195 85.94 553.275 85.12 Z"/>
  </g>
  <g fill="#423A2D" fill-opacity="1.00" stroke="None" transform="matrix(0.9999999999999999, 0, 0, 0.9999999999999999, 41.63047399217723, -76.52075940165298)">
    <path d="M 202.007 98.61 C 202.268 107.437 203.503 136.886 203.177 144.064 C 211.657 140.384 223.21 135.2 231.92 132.92 C 240.64 130.65 257.22 129.19 249.75 119.25 C 242.29 109.31 236.954 103.616 228.63 95.094 C 218.069 94.316 210.267 95.34 202.007 98.61 Z"/>
  </g>
  <g fill="#9A93A0" fill-opacity="1.00" stroke="None" transform="matrix(0.9999999999999999, 0, 0, 0.9999999999999999, 41.63047399217723, -76.52075940165298)">
    <path d="M 185.682 106.51 C 180.616 118.158 182.973 113.994 178 126 C 171.615 141.416 162.938 172.414 160.1 182.787 C 170.18 170.567 186.889 151.902 201.099 145.362 C 201.331 130.253 201.113 115.259 200.177 98.731 C 198.437 98.481 190.375 101.621 185.682 106.51 Z"/>
  </g>
  <g fill="#9A93A0" fill-opacity="1.00" stroke="None" transform="matrix(0.9999999999999999, 0, 0, 0.9999999999999999, 41.63047399217723, -76.52075940165298)">
    <path d="M 482 124 C 475.79 127 461.51 138.8 448 151 C 464.546 154.42 482.433 164.829 484.473 164.989 C 492.953 151.674 498.902 141.362 514 123 C 503.37 122.35 492.25 120.97 482 124 Z"/>
  </g>
  <g fill="#423A2D" fill-opacity="1.00" stroke="None" transform="matrix(0.9999999999999999, 0, 0, 0.9999999999999999, 41.63047399217723, -76.52075940165298)">
    <path d="M 486 166 C 520.19 187.15 554.29 215.88 576 251 C 578.12 238.96 579.362 183.52 577 171 C 571.87 158.67 563.435 149.901 553.75 141.25 C 543.585 132.169 529.893 126.953 516.393 123.64 C 502.763 141.157 499.644 144.816 486 166 Z"/>
  </g>
  <g fill="#423A2D" fill-opacity="1.00" stroke="None" transform="matrix(0.9999999999999999, 0, 0, 0.9999999999999999, 41.63047399217723, -76.52075940165298)">
    <path d="M 203.177 146.964 C 203.616 153.937 204.53 161.47 204 164 C 215.45 151.46 224.25 143.421 239.316 133.807 C 230.358 135.158 208.977 143.976 203.177 146.964 Z"/>
  </g>
  <g fill="#9A93A0" fill-opacity="1.00" stroke="None" transform="matrix(0.9999999999999999, 0, 0, 0.9999999999999999, 41.63047399217723, -76.52075940165298)">
    <path d="M 159.745 185.341 C 157.959 192.899 149.52 242.36 151 257 C 156.07 245.63 169.218 227.865 175.433 219.787 C 182.724 210.31 194.196 196.461 201.376 187.001 C 201.54 177.392 201.7 155.403 201.234 147.518 C 192.619 151.795 181.269 161.863 175.25 168.25 C 169.07 174.808 164.798 179.09 159.745 185.341 Z"/>
  </g>
  <g fill="#423A2D" fill-opacity="1.00" stroke="None" transform="matrix(0.9999999999999999, 0, 0, 0.9999999999999999, 41.63047399217723, -76.52075940165298)">
    <path d="&#10;M 203.00 168.00 &#10;C 204.06 172.77 203.44 180.12 203.00 185.00&#10;C 209.83 177.04 218.30 169.66 226.00 162.00&#10;C 218.04 161.70 211.03 168.83 203.00 168.00 Z"/>
  </g>
  <g fill="#452A37" fill-opacity="1.00" stroke="None" transform="matrix(0.9999999999999999, 0, 0, 0.9999999999999999, 41.63047399217723, -76.52075940165298)">
    <path d="M 341.611 168.865 C 320.121 169.785 202.656 279.626 202.073 284.117 C 193.971 285.495 185.49 287.94 185 288 C 169.23 292.11 155.67 301.53 143 312 C 143.08 305.29 142.683 299.829 144 292 C 144.751 286.273 145.233 279.437 148.035 271.958 C 153.481 257.42 170.855 231.788 180.425 219.968 C 188.771 209.659 220.34 172.65 226 168 C 241.13 153.89 260.23 149.76 281 150 C 263.66 146.44 240.335 148.2 218 158 C 218.41 157.17 232.583 143.981 239 139 C 244.086 135.052 250.23 132.18 256 129 C 264.3 124.42 273.496 119.349 282.562 118.004 C 304.775 114.709 325.822 121.419 339 128.799 C 344.325 131.781 350.94 136.69 357 137 C 361.53 137.23 353.36 131.76 351.3 128.7 C 349.25 125.63 345.61 120.15 344 117 C 339.9 104.14 334.03 91.76 330 79 C 329.64 77.24 327.83 74.21 330 73 C 356.432 113.313 400.61 146.12 445 155 C 447.975 155.511 449.585 156.351 453.933 157.939 C 447.713 169.999 434.27 168.72 423.22 165.78 C 412.18 162.83 405.112 157.785 395.166 152.354 C 383.733 146.111 370.89 134.18 361 124 C 367.98 134.43 379.007 146.512 390.287 151.872 C 389.777 153.452 387.28 149.99 386 150 C 374.56 147.47 363.73 143.31 352 142 C 348.54 141.61 320.74 134.73 310 134 C 304.23 133.61 283.998 134.874 282.008 138.664 C 289.948 142.774 300.286 143.448 308.456 147.488 C 312.516 148.628 319.39 150.85 324.272 153.315 C 329.154 155.78 345.101 162.145 341.611 168.865 Z M 259.265 185.598 C 263.24 182.923 263.235 182.925 259.26 185.601 C 259.261 185.6 259.263 185.599 259.265 185.598 Z" style="fill: rgb(154, 147, 160);"/>
  </g>
  <g fill="#525662" fill-opacity="1.00" stroke="None" transform="matrix(0.9999999999999999, 0, 0, 0.9999999999999999, 41.63047399217723, -76.52075940165298)">
    <path d="M 201.107 284.321 C 204.169 269.465 208.664 254.236 218 237 C 228.8 217.062 239.816 197.137 265 183 C 284.03 174.67 314.25 165.637 335.74 164.717 C 326.866 156.77 314.896 151.93 307.28 148.776 C 298.859 145.288 285.971 140.814 277.023 138.72 C 298.519 127.13 336.262 138.042 352.116 141.417 C 363.907 143.927 374.56 147.47 386 150 C 387.83 150.4 412.18 162.83 423.22 165.78 C 434.27 168.72 447.78 170.06 454 158 C 488.111 171.119 504.44 182.46 527.75 202.25 C 551.06 222.04 572.55 248.86 584 276 C 588.482 295.392 602.9 326.74 609.02 349.98 C 615.14 373.21 628.23 394.08 635 417 C 638.55 429.02 648.411 442.2 654.788 454.063 C 676.948 495.286 722.19 578.77 726 584 C 727.45 585.98 728.76 587.87 730 590 C 730.69 595.86 737.55 595.23 742 595 C 741.65 592.07 738.66 590.08 737 588 C 736.63 587.54 736.35 586.55 736 586 C 744.71 595.06 753.99 607.86 760 619 C 750.61 605.85 734.573 598.153 720.063 591.363 C 676.893 571.173 624.039 571.733 588 540 C 572.789 526.606 567.213 491.657 564.713 483.742 C 569.703 475.482 575.63 463.25 574 454 C 565.39 484.78 539.87 507.63 516.3 529.3 C 492.74 550.97 473.655 562.965 452.232 587.785 C 430.921 612.475 399.294 645.148 352 650 C 339.49 651.283 327.082 650.325 314.236 647.913 C 302.802 645.766 279.7 636.406 268.301 627.097 C 248.458 610.893 242.256 598.491 236 584 C 232.33 568.12 217.4 554.53 205.25 541.75 C 193.1 528.98 181.41 515.41 169 503 C 154.94 488.94 148.04 469.79 141 452 C 152.88 460.59 165.802 467.311 180 471 C 191.25 473.923 212.049 475.538 223.395 474.319 C 235.98 472.967 255.043 465.32 267.888 457.839 C 273.86 454.361 277.57 450.157 281.711 445.252 C 282.197 444.448 289.97 435.77 291.92 431.92 C 293.87 428.07 297.04 423.01 299 419 C 303.1 410.61 307.12 399.08 308 390 C 312.1 347.59 288.15 312.22 253 292 C 238.3 285.88 218.83 282.505 201.107 284.321 Z M 409.25 469.75 C 441.84 489.86 486.06 492.9 523.69 480.69 C 561.33 468.49 578 431.54 578 394 C 578 342.77 528.78 299.6 479 296 C 429.22 292.4 371.61 323.71 364 377 C 358.61 414.72 376.65 449.65 409.25 469.75 Z" style="fill: rgb(17, 40, 59);"/>
  </g>
  <g fill="#9A93A0" fill-opacity="1.00" stroke="None" transform="matrix(0.9999999999999999, 0, 0, 0.9999999999999999, 41.63047399217723, -76.52075940165298)">
    <path d="M 580.038 268.128 C 597.88 320.936 602.329 329.77 608.741 352.932 C 635.013 447.832 693.259 530.88 715.439 567.86 C 717.739 570.69 729.961 590.627 732.041 593.637 C 734.121 596.647 747.744 610.119 761.509 621.542 C 745.574 596.1 703.68 536.26 689.3 512.7 C 674.93 489.13 661.79 465.06 650.32 439.68 C 638.85 414.3 624.74 387.69 616.31 360.69 C 607.87 333.7 591.553 292.779 580.038 268.128 Z"/>
  </g>
  <g fill="#9A93A0" fill-opacity="1.00" stroke="None" transform="matrix(0.9999999999999999, 0, 0, 0.9999999999999999, 41.63047399217723, -76.52075940165298)">
    <path d="M 270 446 C 259.69 454.14 231.277 464.671 218.358 465.966 C 202.683 466.787 188.362 463.989 181.759 462.918 C 112.833 451.734 98.83 344.63 158 308 C 189.52 288.49 230.67 281.7 262 305 C 264.63 306.95 267.46 308.83 270 311 C 310.79 345.86 313.46 411.69 270 446 Z" style="fill: rgb(155, 178, 173);"/>
  </g>
  <g fill="#9A93A0" fill-opacity="1.00" stroke="None" transform="matrix(0.9999999999999999, 0, 0, 0.9999999999999999, 41.63047399217723, -76.52075940165298)">
    <path d="M 505.392 308.203 C 522.848 315.346 560.542 331.626 570.822 385.152 C 578.441 424.82 553.72 452.89 530.92 466.92 C 508.13 480.96 474.49 479.14 448 476 C 447.51 475.94 433.13 472.21 427 470 C 403.96 461.71 387.39 443.44 375 423 C 360.83 390.91 371.658 355.018 397.198 330.387 C 414.286 313.907 431.05 308.199 453.717 304.601 C 472.521 301.616 491.444 302.496 505.392 308.203 Z" style="fill: rgb(155, 178, 173);"/>
    <path d="M 510.802 307.982 C 517.309 306.233 531.363 302.248 535.197 289.145 C 538.038 279.434 528.82 272.561 520.318 269.126 C 511.821 265.689 499.278 266.135 489.402 266.903 C 489.22 266.919 483.859 267.832 481.572 268.372 C 472.982 270.402 466.804 274.875 462.185 279.879 C 456.902 287.735 460.938 296.52 470.461 302.552 C 476.833 306.585 483.082 307.983 491.534 308.863 C 498.545 309.594 505.601 309.378 510.802 307.982 Z" style="fill: rgb(0, 0, 0); transform-box: fill-box;" transform="matrix(-1, 0, 0, -1, 0.000027, 0.000015)"/>
    <path d="M 432.799 227.569 C 435.592 228.319 439.994 229.564 444.127 231.998 C 448.239 234.453 452.073 238.077 453.724 243.709 C 454.941 247.901 453.553 251.449 450.999 254.341 C 448.397 257.209 444.619 259.434 440.971 260.908 C 433.675 263.859 422.918 263.477 414.446 262.819 C 414.284 262.804 409.687 262.022 407.725 261.558 C 400.349 259.814 395.087 256.007 391.131 251.735 L 391.078 251.678 L 391.042 251.624 C 388.817 248.262 388.595 244.751 389.871 241.369 C 391.221 238.008 394.094 234.821 398.182 232.232 C 403.654 228.767 409.016 227.568 416.267 226.814 C 422.282 226.187 428.335 226.371 432.799 227.569 Z" style="fill: rgb(55, 62, 69); transform-origin: 421.631px 244.873px;"/>
    <path d="M 294.244 223.69 C 300.751 225.439 314.805 229.424 318.639 242.527 C 321.48 252.238 312.262 259.111 303.76 262.546 C 295.263 265.983 282.72 265.537 272.844 264.769 C 272.662 264.753 267.301 263.84 265.014 263.3 C 256.424 261.27 250.246 256.797 245.627 251.793 C 240.344 243.937 244.38 235.152 253.903 229.12 C 260.275 225.087 266.524 223.689 274.976 222.809 C 281.987 222.078 289.043 222.294 294.244 223.69 Z" style="fill: rgb(0, 0, 0);"/>
    <path d="M 357.085 297.882 C 359.878 297.132 364.28 295.887 368.413 293.453 C 372.525 290.998 376.359 287.374 378.01 281.742 C 379.227 277.55 377.839 274.002 375.285 271.11 C 372.683 268.242 368.905 266.017 365.257 264.543 C 357.961 261.592 347.204 261.974 338.732 262.632 C 338.57 262.647 333.973 263.429 332.011 263.893 C 324.635 265.637 319.373 269.444 315.417 273.716 L 315.364 273.773 L 315.328 273.827 C 313.103 277.189 312.881 280.7 314.157 284.082 C 315.507 287.443 318.38 290.63 322.468 293.219 C 327.94 296.684 333.302 297.883 340.553 298.637 C 346.568 299.264 352.621 299.08 357.085 297.882 Z" style="fill: rgb(55, 62, 69); transform-box: fill-box;" transform="matrix(-1, 0, 0, -1, -0.000011, 0.000008)"/>
  </g>
  <g fill="#E8D1B0" fill-opacity="1.00" stroke="None" transform="matrix(0.9999999999999999, 0, 0, 0.9999999999999999, 41.63047399217723, -76.52075940165298)">
    <path d="&#10;M 171.00 350.00 &#10;C 175.49 346.13 178.05 343.28 180.00 338.00&#10;C 180.71 322.76 162.52 320.62 153.77 332.77 C 145.03 344.92 157.07 357.20 171.00 350.00 Z"/>
    <path d="M 464.146 349.507 C 468.636 345.637 471.196 342.787 473.146 337.507 C 473.856 322.267 455.666 320.127 446.916 332.277 C 438.176 344.427 450.216 356.707 464.146 349.507 Z"/>
  </g>
  <g fill="#000002" fill-opacity="1.00" stroke="None" transform="matrix(0.9999999999999999, 0, 0, 0.9999999999999999, 41.63047399217723, -76.52075940165298)">
    <path d="M 255.25 342.75 C 243.11 324.04 202.467 326.682 181.776 332.534 C 181.386 334.104 182.555 346.544 171.12 351.759 C 157.209 357.132 150.54 348.415 149 348.465 C 126.492 377.218 133.65 388.84 137 403 C 140.89 413.03 149.01 420.9 159 425 C 173.359 427.762 176.675 429.621 193 429 C 212.756 428.249 243.06 426.18 256.08 409.08 C 269.1 391.97 267.39 361.46 255.25 342.75 Z"/>
  </g>
  <g fill="#000002" fill-opacity="1.00" stroke="None" transform="matrix(0.9999999999999999, 0, 0, 0.9999999999999999, 41.63047399217723, -76.52075940165298)">
    <path d="&#10;M 475.00 341.00 &#10;C 471.05 355.97 444.48 358.39 441.00 342.00&#10;C 419.14 355.49 409.52 389.69 421.70 412.30 C 433.88 434.92 466.14 443.00 490.00 443.00&#10;C 497.67 443.00 505.33 443.00 513.00 443.00&#10;C 534.87 443.00 553.10 432.26 556.02 410.02 C 558.95 387.79 557.86 366.10 538.75 353.25 C 519.63 340.41 504.38 337.17 482.00 335.00&#10;C 480.00 335.00 478.00 335.00 476.00 335.00&#10;C 476.59 337.24 475.60 339.39 475.00 341.00 Z"/>
  </g>
  <g fill="#000002" fill-opacity="1.00" stroke="None" transform="matrix(0.9999999999999999, 0, 0, 0.9999999999999999, 41.63047399217723, -76.52075940165298)">
    <path d="M 418.591 491.916 C 418.951 492.146 419.74 492.39 420 491 C 395.42 478.78 374.58 455.57 367 429 C 365.48 437.99 371.961 449.213 376.25 455.75 C 380.539 462.287 386.87 470.07 393.251 475.746 C 399.446 481.257 406.931 486.159 418.591 491.916 Z" style=""/>
    <path d="M 393.543 476.409 C 387.984 470.029 379.249 464.775 375.783 455.93 C 372.453 447.288 365.04 438.107 366.507 428.917 L 366.863 426.689 L 367.481 428.863 C 375.006 455.334 395.717 478.389 420.223 490.552 L 420.579 490.729 L 420.491 491.092 C 420.383 491.54 420.122 491.941 419.827 492.132 C 419.534 492.321 419.132 492.41 418.799 492.437 C 418.146 492.49 417.496 492.381 417.113 492.487 L 417.196 492.464 L 417.169 492.471 C 417.169 492.471 416.31 492.676 415.731 492.421 L 415.65 492.386 L 415.576 492.265 C 411.514 485.616 399.287 482.918 393.543 476.409 Z M 416.369 491.649 C 416.548 491.7 416.831 491.529 416.831 491.529 L 416.844 491.522 L 416.887 491.513 C 417.454 491.399 418.174 491.485 418.718 491.44 C 418.984 491.419 419.138 491.386 419.284 491.292 C 419.332 491.261 419.354 491.273 419.364 491.293 C 419.365 491.28 419.366 491.263 419.368 491.243 C 394.905 478.928 375.472 457.26 367.276 431.636 C 367.311 439.596 373.307 446.792 376.716 455.57 C 379.971 464.165 388.616 469.271 394.296 475.751 C 399.772 482.101 411.944 484.84 416.369 491.649 Z" style="fill: none;"/>
    <path d="M 393.543 476.409 C 387.984 470.029 379.249 464.775 375.783 455.93 C 372.453 447.288 365.04 438.107 366.507 428.917 L 366.863 426.689 L 367.481 428.863 C 375.006 455.334 395.717 478.389 420.223 490.552 L 420.579 490.729 L 420.491 491.092 C 420.383 491.54 420.122 491.941 419.827 492.132 C 419.534 492.321 419.132 492.41 418.799 492.437 C 418.146 492.49 417.496 492.381 417.113 492.487 L 417.196 492.464 L 417.169 492.471 C 417.169 492.471 416.31 492.676 415.731 492.421 L 415.65 492.386 L 415.576 492.265 C 411.514 485.616 399.287 482.918 393.543 476.409 Z M 416.369 491.649 C 416.548 491.7 416.831 491.529 416.831 491.529 L 416.844 491.522 L 416.887 491.513 C 417.454 491.399 418.174 491.485 418.718 491.44 C 418.984 491.419 419.138 491.386 419.284 491.292 C 419.332 491.261 419.354 491.273 419.364 491.293 C 419.365 491.28 419.366 491.263 419.368 491.243 C 394.905 478.928 375.472 457.26 367.276 431.636 C 367.311 439.596 373.307 446.792 376.716 455.57 C 379.971 464.165 388.616 469.271 394.296 475.751 C 399.772 482.101 411.944 484.84 416.369 491.649 Z" style="fill: none;"/>
    <path d="M 393.543 476.409 C 387.984 470.029 379.249 464.775 375.783 455.93 C 372.453 447.288 365.04 438.107 366.507 428.917 L 366.863 426.689 L 367.481 428.863 C 375.006 455.334 395.717 478.389 420.223 490.552 L 420.579 490.729 L 420.491 491.092 C 420.383 491.54 420.122 491.941 419.827 492.132 C 419.534 492.321 419.132 492.41 418.799 492.437 C 418.146 492.49 417.496 492.381 417.113 492.487 L 417.196 492.464 L 417.169 492.471 C 417.169 492.471 416.31 492.676 415.731 492.421 L 415.65 492.386 L 415.576 492.265 C 411.514 485.616 399.287 482.918 393.543 476.409 Z M 416.369 491.649 C 416.548 491.7 416.831 491.529 416.831 491.529 L 416.844 491.522 L 416.887 491.513 C 417.454 491.399 418.174 491.485 418.718 491.44 C 418.984 491.419 419.138 491.386 419.284 491.292 C 419.332 491.261 419.354 491.273 419.364 491.293 C 419.365 491.28 419.366 491.263 419.368 491.243 C 394.905 478.928 375.472 457.26 367.276 431.636 C 367.311 439.596 373.307 446.792 376.716 455.57 C 379.971 464.165 388.616 469.271 394.296 475.751 C 399.772 482.101 411.944 484.84 416.369 491.649 Z" style="fill: none;"/>
  </g>
  <g fill="#000002" fill-opacity="1.00" stroke="None" transform="matrix(0.9999999999999999, 0, 0, 0.9999999999999999, 41.63047399217723, -76.52075940165298)">
    <path d="&#10;M 285.00 444.00 &#10;C 284.90 446.34 282.28 447.62 281.00 449.00&#10;C 280.49 449.55 280.36 450.41 280.00 451.00&#10;C 272.96 462.56 260.44 469.54 250.00 477.00&#10;C 265.28 470.84 280.39 457.58 287.00 442.00&#10;C 285.77 441.85 285.66 443.53 285.00 444.00 Z"/>
  </g>
  <g fill="#0B1A26" fill-opacity="1.00" stroke="None" transform="matrix(0.9999999999999999, 0, 0, 0.9999999999999999, 41.63047399217723, -76.52075940165298)">
    <path d="M 95 555 C 120.55 541.12 169.69 528.54 176 517 C 169.76 511.76 163.832 502.999 158.75 496.25 C 153.213 488.897 147.085 481.84 144.239 477.373 C 134.219 478.693 130.48 490.591 124.805 501.511 C 119.13 512.431 117.23 521.23 110.92 528.92 C 104.6 536.61 101 547.06 95 555 Z" style="fill: rgb(17, 40, 59);"/>
  </g>
  <g fill="#373E45" fill-opacity="1.00" stroke="None" transform="matrix(0.9999999999999999, 0, 0, 0.9999999999999999, 41.63047399217723, -76.52075940165298)">
    <path d="M 95 555 C 93.6 555.76 92.89 556.67 92 558 C 87.99 564.01 84.92 570.17 81.25 576.25 C 77.58 582.32 65.77 601.36 63 605 C 76.39 594.01 88.73 582.86 102.77 572.77 C 116.81 562.68 133.706 555.411 148 546 C 157.471 539.764 176.895 523.205 176.015 517.095 C 152.885 535.715 120.55 541.12 95 555 Z"/>
  </g>
  <g fill="#0B1A26" fill-opacity="1.00" stroke="None" transform="matrix(0.9999999999999999, 0, 0, 0.9999999999999999, 41.63047399217723, -76.52075940165298)">
    <path d="M 374 652 C 365.677 654.867 367.177 663.776 365.144 681.696 C 389.63 680.893 398.323 682.103 409 682 L 808 682 L 808.14 592.97 C 783.414 583.702 758.225 577.867 736.636 579.024 C 752.796 600.984 789 648.05 801 672 C 770.78 675.11 730.1 678.39 700.07 674.93 C 670.05 671.46 638.11 667.28 612.03 656.97 C 585.94 646.66 565.16 635.37 553.78 609.22 C 542.4 583.08 538.63 551.37 534 523 C 515.14 536.1 498.63 551.82 480.25 566.25 C 461.86 580.68 449.934 598.315 433.75 615.75 C 415.337 635.587 393.77 642.65 374 652 Z" style="fill: rgb(16, 38, 57);"/>
  </g>
  <g fill="#373E45" fill-opacity="1.00" stroke="None" transform="matrix(0.9999999999999999, 0, 0, 0.9999999999999999, 41.63047399217723, -76.52075940165298)">
    <path d="M 703.339 582.656 C 717.849 589.446 746.176 600.533 756.2 613.206 C 765.484 624.943 778.92 643.87 785 658 C 735 616.27 664.188 608.907 595.072 558.183 C 572.506 541.622 564.096 526.154 559.23 509.77 C 554.364 493.386 556.519 497.874 565 483 C 570.53 498.82 578.248 528.202 591.356 537.051 C 631.155 563.917 660.169 562.466 703.339 582.656 Z"/>
  </g>
  <g fill="#000002" fill-opacity="1.00" stroke="None" transform="matrix(0.9999999999999999, 0, 0, 0.9999999999999999, 41.63047399217723, -76.52075940165298)">
    <path d="M 356 616 C 345.322 606.214 338.55 602.307 330.9 597.297 C 323.24 592.277 317.516 589.694 309.603 596.597 C 301.69 603.5 297.696 607.152 292 616 C 301.073 610.431 310.937 595.493 322.32 598.68 C 333.703 601.867 342.031 608.914 356 616 Z"/>
  </g>
  <g fill="#525662" fill-opacity="1.00" stroke="None" transform="matrix(0.9999999999999999, 0, 0, 0.9999999999999999, 41.63047399217723, -76.52075940165298)">
    <path d="M 45.631 625.814 C 57.873 604.334 95.79 519.19 110 473 C 111.72 467.42 115.56 456.33 117.78 451.78 C 120 447.22 124.18 431.97 128 435 C 129.57 436.24 132.12 443.81 133 446 C 137.57 453.62 143.95 476.305 144.75 477.795 C 134.73 479.115 113.661 528.901 93.696 557.812 C 89.591 563.757 84.92 570.17 81.25 576.25 C 80.003 578.313 77.815 581.874 75.362 585.82 C 83.573 571.797 83.569 571.805 75.355 585.831 C 75.357 585.827 75.36 585.824 75.362 585.82 C 73.57 588.879 71.713 591.872 69.756 594.753 C 69.757 594.752 64.961 603.525 60.998 607.488 C 58.888 609.518 48.122 623.507 45.631 625.814 Z" style="fill: rgb(154, 147, 160);"/>
  </g>
  <g fill="#000002" fill-opacity="1.00" stroke="None" transform="matrix(-1.1369940042495728, 0, 0, -1.6160409450531004, 719.0361921481226, 1437.4833950398245)" style="">
    <path d="M 345.149 608.958 C 339.046 602.262 332.56 595.757 329.776 594.288 C 326.183 592.391 319.843 590.257 314.437 593.56 C 309.031 596.863 301.943 601.441 292.114 610.4 C 306.076 602.431 316.109 597.025 322.375 597.252 C 328.641 597.479 338.588 604.326 345.149 608.958 Z"/>
  </g>
</svg>