<?xml version="1.0" encoding="utf-8"?>
<svg viewBox="0 0 500 500" xmlns="http://www.w3.org/2000/svg">
  <defs>
    <clipPath id="clippath0" transform="">
      <path d="M 0 500 L 500 500 L 500 0 L 0 0 Z" style="fill: none; clip-rule: nonzero;"/>
    </clipPath>
  </defs>
  <g fill="#000000" fill-opacity="1.00" stroke="None" transform="matrix(1.1736199855804443, 0, 0, 1.1736199855804443, 39.670288085937614, 38.463565826416016)" style="">
    <title>CABRA</title>
    <path d="M 159.429 101.482 C 166.611 101.482 191.836 102 199 102 C 201.5 91.82 204.56 80.67 209.31 71.31 C 214.05 61.94 219.05 53.91 225.92 45.92 C 232.78 37.92 238.91 32.55 247.7 26.7 C 256.48 20.84 264.72 15.62 275.68 12.68 C 286.63 9.74 298.321 9.462 311.22 10.78 C 323.777 12.063 329.49 14.41 342.69 21.31 C 355.9 28.2 344.99 38.321 331.99 36.01 C 318.99 33.699 306.548 38.218 297.32 42.32 C 288.092 46.422 280.21 52.23 272.25 59.25 C 264.29 66.27 259.81 73.32 254.7 82.7 C 249.58 92.07 247.2 104.12 245.07 115.07 C 242.94 126.03 251.91 136.21 257 145 C 262.99 137.84 269.53 133.57 279.02 132.02 C 288.52 130.48 304.48 131.26 314 131 C 323.52 130.74 339.83 128.7 339.21 139.23 C 338.59 149.75 333.66 155.89 326.75 162.75 C 319.84 169.62 314.32 174.37 304.32 176.32 C 294.32 178.28 285.87 180.57 274 179 C 262.13 177.43 263.16 192.23 260.22 201.22 C 257.29 210.22 250.64 216.54 242 219 C 238.97 231.06 235.11 244.88 231.68 256.68 C 228.24 268.48 224.09 283.85 221.02 295.02 C 217.96 306.2 214.13 320.81 206.25 328.25 C 198.37 335.68 189.361 350.59 178.421 350.97 C 178.07 350.983 178.777 350.975 178.588 350.968 C 167.648 350.588 160.059 335.162 152.179 327.732 C 144.299 320.292 140.469 305.682 137.409 294.502 C 134.339 283.332 130.189 267.962 126.749 256.162 C 123.319 244.362 119.459 230.542 116.429 218.482 C 107.789 216.022 101.139 209.702 98.209 200.702 C 95.269 191.712 96.299 176.912 84.429 178.482 C 72.559 180.052 64.109 177.762 54.109 175.802 C 44.109 173.852 38.589 169.102 31.679 162.232 C 24.769 155.372 19.839 149.232 19.219 138.712 C 18.599 128.182 34.909 130.222 44.429 130.482 C 53.949 130.742 69.909 129.962 79.409 131.502 C 88.899 133.052 95.439 137.322 101.429 144.482 C 106.519 135.692 115.489 125.512 113.359 114.552 C 111.229 103.602 108.849 91.552 103.729 82.182 C 98.619 72.802 94.139 65.752 86.179 58.732 C 78.219 51.712 70.337 45.904 61.109 41.802 C 51.881 37.7 39.439 33.181 26.439 35.492 C 13.439 37.803 2.529 27.682 15.739 20.792 C 28.939 13.892 34.652 11.545 47.209 10.262 C 60.108 8.944 71.799 9.222 82.749 12.162 C 93.709 15.102 101.949 20.322 110.729 26.182 C 119.519 32.032 125.649 37.402 132.509 45.402 C 139.379 53.392 144.379 61.422 149.119 70.792 C 153.869 80.152 156.929 91.302 159.429 101.482 Z" style="fill: rgb(255, 255, 255);"/>
  </g>
</svg>